# xmcd
# 
# Track frame offsets:
#     150
#     21267
#     42801
#     64456
#     81397
#     102515
#     124048
#     145702
# 
# Disc length: 2164
# 
# Revision: 3
# Processed by: cddbd v1.5.2PL0 Copyright (c) Steve Scherf et al.
# Submitted via: BonkEnc v1.0.8
# 
DISCID=6e087208
DTITLE=嵐 - 愛を叫べ
DYEAR=2015
DGENRE=JPop
TTITLE0=愛を叫べ
TTITLE1=It's good to be bad
TTITLE2=ユメニカケル
TTITLE3=I Say
TTITLE4=愛を叫べ（カラオケ）
TTITLE5=It's good to be bad（カラオケ)
TTITLE6=ユメニカケル（カラオケ）
TTITLE7=I Say（カラオケ）
EXTD=
EXTT0=
EXTT1=
EXTT2=
EXTT3=
EXTT4=
EXTT5=
EXTT6=
EXTT7=
PLAYORDER=
